<svg xmlns="http://www.w3.org/2000/svg" version="1.1" xmlns:xlink="http://www.w3.org/1999/xlink" width="512" height="512" x="0" y="0" viewBox="0 0 512 512" style="enable-background:new 0 0 512 512" xml:space="preserve" class=""><rect width="512" height="512" rx="102.4" ry="102.4" fill="#0d0d0d" shape="rounded"></rect><g transform="matrix(0.7,0,0,0.7,76.80059967041018,76.79744436023759)"><path fill="#8a2be1" fill-rule="evenodd" d="M256 317.172a61.181 61.181 0 1 1 61.18-61.18 61.25 61.25 0 0 1-61.18 61.18zm0-135.191a74.011 74.011 0 1 0 74 74.011 74.086 74.086 0 0 0-74-74.011zm18.539 92.971c0-5.28-5.13-9.92-12.129-11.721v23.452c7-1.822 12.129-6.452 12.129-11.731zm-37.081-37.921c0 5.281 5.132 9.92 12.122 11.721V225.3c-6.99 1.819-12.122 6.449-12.122 11.728zm37.081 0a6.415 6.415 0 0 0 12.83 0c0-12.209-10.72-22.439-24.959-24.84v-5.5a6.415 6.415 0 0 0-12.83 0v5.5c-14.232 2.4-24.952 12.631-24.952 24.84s10.72 22.441 24.952 24.842v24.81c-6.99-1.822-12.122-6.452-12.122-11.731a6.415 6.415 0 0 0-12.83 0c0 12.21 10.72 22.439 24.952 24.84v5.5a6.415 6.415 0 0 0 12.83 0v-5.5c14.239-2.4 24.959-12.63 24.959-24.84s-10.72-22.431-24.959-24.842V225.3c7 1.819 12.129 6.449 12.129 11.728zm133.711 274.96-69.59-99.939h37.84a6.425 6.425 0 0 0 6.42-6.41v-48.051l8.491-8.5a6.4 6.4 0 0 0 .611-8.369l-20.541-27.57a129.828 129.828 0 0 0 6.6-15.921l34.02-4.97a6.413 6.413 0 0 0 5.481-6.339V262.4h16v143.24a6.417 6.417 0 0 0 6.411 6.41h37.83l-69.569 99.939zm-64.31-133.569 34.49-34.481L358.8 317.6a6.385 6.385 0 0 1-.5-6.86 116.353 116.353 0 0 0 8.75-21.13 6.4 6.4 0 0 1 5.219-4.489l32.481-4.751v-48.758l-32.481-4.751a6.4 6.4 0 0 1-5.219-4.489 116.174 116.174 0 0 0-8.761-21.13 6.394 6.394 0 0 1 .511-6.862l19.63-26.338-34.49-34.481-26.33 19.621a6.43 6.43 0 0 1-6.869.52 114.539 114.539 0 0 0-21.131-8.77 6.434 6.434 0 0 1-4.49-5.21l-4.74-32.49h-48.759l-4.742 32.49a6.46 6.46 0 0 1-4.489 5.21 114.27 114.27 0 0 0-21.139 8.77 6.435 6.435 0 0 1-6.871-.52l-26.32-19.621-34.49 34.481 19.63 26.338a6.419 6.419 0 0 1 .5 6.862 116.14 116.14 0 0 0-8.75 21.13 6.41 6.41 0 0 1-5.221 4.489l-32.478 4.751v48.759l32.478 4.751a6.386 6.386 0 0 1 5.212 4.489 115.421 115.421 0 0 0 8.759 21.13 6.415 6.415 0 0 1-.5 6.86l-19.63 26.34 34.49 34.481L194.4 358.8a6.419 6.419 0 0 1 6.86-.52 114.773 114.773 0 0 0 21.119 8.77 6.415 6.415 0 0 1 4.5 5.2l4.742 32.5h48.759l4.74-32.49a6.475 6.475 0 0 1 4.49-5.21 114.027 114.027 0 0 0 21.131-8.77 6.451 6.451 0 0 1 6.878.52l26.322 19.621zM78.42 249.581v-143.24a6.423 6.423 0 0 0-6.411-6.41H34.181L103.75-.008l69.591 99.939H135.5a6.425 6.425 0 0 0-6.419 6.41v48.051l-8.489 8.5a6.4 6.4 0 0 0-.611 8.369l20.539 27.58a129.354 129.354 0 0 0-6.6 15.911l-34.02 4.97a6.412 6.412 0 0 0-5.481 6.339v23.52z" opacity="1" data-original="#4caf50" class=""></path></g></svg>